<?xml version="1.0" encoding="utf-8"?>
<!-- Generator: Adobe Illustrator 26.0.0, SVG Export Plug-In . SVG Version: 6.00 Build 0)  -->
<svg version="1.1" id="Layer_1" xmlns="http://www.w3.org/2000/svg" xmlns:xlink="http://www.w3.org/1999/xlink" x="0px" y="0px"
	 viewBox="0 0 276.12 421.37" style="enable-background:new 0 0 276.12 421.37;" xml:space="preserve">
<style type="text/css">
	.st0{fill:#033855;}
	.st1{font-family:'HelveticaNowText-Medium';}
	.st2{font-size:11.1571px;}
	.st3{font-size:16.6911px;}
	.st4{font-size:23.9239px;}
	.st5{fill:#F4B51A;}
	.st6{fill:#1A3C58;}
</style>
<text id="BTVI" transform="matrix(0.9866 0 0 1 28.2122 273.8069)" class="st0 st1 st2">TECHNICAL AND VOCATIONAL INSTITUTE</text>
<text id="BTVI_1_" transform="matrix(0.9866 0 0 1 115.5375 357.9203)" class="st0 st1 st3">2022</text>
<text id="BTVI_2_" transform="matrix(0.9866 0 0 1 100.0527 334.5522)" class="st0 st1 st4">B.T.V.I</text>
<path class="st5" d="M180.4,26.1c-3.79-1.8-8.17-1.27-11.43,1.39l-7.4,6.05l-2.63,2.15l-2.25-2.55l-10.54-11.93
	c-4.71-4-11.51-3.95-16.16,0.11l-10.25,11.8l-2.23,2.57l-2.63-2.15l-7.39-6.04c-3.25-2.66-7.63-3.19-11.43-1.39
	c-3.8,1.8-6.15,5.53-6.15,9.73v28.54c-0.05,0.39-0.04,0.79,0.03,1.19c0.39,2.03,2.34,3.36,4.37,2.97
	c0.47-0.09,46.99-8.79,87.55-0.02c0.27,0.06,0.53,0.08,0.79,0.08c0.3,0,0.59-0.04,0.88-0.11c0.02,0,0.03-0.01,0.05-0.01
	c0.01,0,0.02,0,0.03-0.01c1.68-0.37,2.95-1.87,2.95-3.67V35.83C186.55,31.62,184.2,27.9,180.4,26.1 M179.02,60.31
	c-20.7-3.84-42.1-3.56-56.83-2.58c-11,0.73-19.78,1.91-24.76,2.69V35.83c0-1.9,1.41-2.72,1.85-2.92c0.44-0.21,1.96-0.79,3.44,0.42
	l8.15,6.67l4.62,3.78c0.96,0.79,2.19,1.02,3.31,0.73c0.05-0.01,0.1-0.02,0.14-0.04c0.05-0.01,0.09-0.02,0.14-0.04
	c0.49-0.15,0.97-0.4,1.38-0.76l4.27-4.91l10.21-11.75c1.82-1.59,4.49-1.61,6.34-0.04l10.44,11.82l4.08,4.63l0.25,0.28
	c0.29,0.25,0.6,0.44,0.93,0.58c0.06,0.02,0.12,0.05,0.17,0.07c0.02,0.01,0.03,0.01,0.05,0.02c1.22,0.48,2.66,0.3,3.74-0.59
	l4.64-3.79v0l8.13-6.65c1.47-1.2,3-0.63,3.44-0.42c0.44,0.2,1.85,1.02,1.85,2.92V60.31z"/>
<path class="st6" d="M276.12,82.83v179.61c0,31.06-10.49,61.48-29.53,85.67c-11.96,15.18-25.89,28.66-41.42,40.05
	c-18.13,13.3-40.44,24.93-62.78,32.49c-2.8,0.95-5.85,0.95-8.65,0c-22.34-7.56-44.65-19.19-62.78-32.49
	c-15.53-11.39-29.47-24.87-41.42-40.05C10.48,323.92,0,293.5,0,262.44V82.83c0-3.35,2.28-6.28,5.53-7.09l80.29-20.2v8.61
	c-0.07,0.73-0.03,1.46,0.11,2.17c0.28,1.47,0.97,2.78,1.92,3.81l-73.23,18.4v173.91c0,27.79,9.37,55.01,26.39,76.62
	c23.98,30.44,55.1,52.48,92.58,65.57c2.89,1.01,6.04,1.01,8.92,0c37.48-13.09,68.6-35.12,92.58-65.57
	c17.02-21.61,26.39-48.83,26.39-76.62V88.53l-73.04-18.35c1.35-1.42,2.17-3.34,2.17-5.4v-9.17l79.96,20.12
	C273.84,76.56,276.12,79.48,276.12,82.83"/>
<path class="st6" d="M29.78,257.49v-44.9H51.1c3.9,0,7.06,0.93,9.48,2.77c2.63,2.02,3.95,4.81,3.95,8.39c0,2.52-0.64,4.54-1.91,6.05
	c-1.27,1.51-3.2,2.52-5.79,3.03c3.01,0.38,5.39,1.64,7.13,3.78c1.74,2.14,2.61,4.63,2.61,7.44c0,5.13-1.74,8.77-5.22,10.91
	c-2.76,1.68-6.85,2.52-12.28,2.52H29.78z M38.31,219.27v11.35h10.12c2.08,0,3.75-0.42,5.03-1.26c1.44-0.97,2.16-2.46,2.16-4.48
	c0-1.77-0.59-3.14-1.78-4.13c-1.19-0.99-2.99-1.48-5.41-1.48H38.31z M38.31,236.93v13.12h11.07c2.76,0,4.77-0.44,6.05-1.32
	c1.48-1.01,2.23-2.65,2.23-4.92c0-2.4-0.72-4.14-2.16-5.23c-1.44-1.09-3.5-1.64-6.17-1.64H38.31z"/>
<path class="st6" d="M72.23,257.49v-44.9h18.9c4.75,0,8.48,1.24,11.2,3.72c2.71,2.48,4.07,5.76,4.07,9.84c0,3.4-0.72,6.17-2.16,8.29
	c-1.44,2.12-3.71,3.77-6.81,4.95l10.15,18.1h-9.9l-8.78-16.52h-8.15v16.52H72.23z M80.75,220.03v13.49h9.29c2.21,0,4-0.6,5.38-1.8
	c1.38-1.2,2.07-2.85,2.07-4.95c0-2.14-0.72-3.8-2.16-4.98c-1.44-1.18-3.63-1.77-6.55-1.77H80.75z"/>
<rect x="112.76" y="212.59" class="st6" width="8.53" height="44.9"/>
<path class="st6" d="M169.33,224.63l-7.95,3.22c-0.59-2.27-1.65-4.14-3.18-5.61c-2.04-1.98-4.75-2.96-8.14-2.96
	c-4.24,0-7.51,1.64-9.8,4.92c-1.99,2.86-2.99,6.47-2.99,10.85c0,4.33,1,7.92,2.99,10.78c2.33,3.32,5.6,4.98,9.8,4.98
	c3.14,0,5.84-0.98,8.11-2.93c2.27-1.95,3.4-4.45,3.4-7.47h-11.2v-7.44h18.96v24.53h-7.38v-3.85c-1.4,1.56-3.21,2.77-5.44,3.66
	c-2.23,0.88-4.38,1.32-6.46,1.32c-6.96,0-12.39-2.33-16.29-7c-3.61-4.29-5.41-9.82-5.41-16.58c0-6.6,1.91-12.11,5.73-16.52
	c4.07-4.71,9.4-7.06,15.97-7.06c4.62,0,8.56,1.1,11.8,3.31C165.1,216.97,167.59,220.26,169.33,224.63"/>
<polygon class="st6" points="177.16,257.49 177.16,212.59 185.69,212.59 185.69,229.43 205.16,229.43 205.16,212.59 213.69,212.59 
	213.69,257.49 205.16,257.49 205.16,237.25 185.69,237.25 185.69,257.49 "/>
<polygon class="st6" points="230.68,257.49 230.68,220.41 218.27,220.41 218.27,212.59 251.61,212.59 251.61,220.41 239.2,220.41 
	239.2,257.49 "/>
<path class="st5" d="M103.61,11.14c0,5.49-4.45,9.95-9.95,9.95c-5.49,0-9.95-4.45-9.95-9.95s4.45-9.95,9.95-9.95
	C99.16,1.19,103.61,5.65,103.61,11.14"/>
<path class="st5" d="M192.78,12.08c0,5.49-4.45,9.95-9.95,9.95c-5.49,0-9.95-4.45-9.95-9.95s4.45-9.95,9.95-9.95
	C188.33,2.13,192.78,6.59,192.78,12.08"/>
<path class="st5" d="M144.94,7.03c0,3.89-3.15,7.03-7.03,7.03c-3.88,0-7.03-3.15-7.03-7.03c0-3.89,3.15-7.03,7.03-7.03
	C141.8,0,144.94,3.15,144.94,7.03"/>
<rect x="29.78" y="261.56" class="st6" width="221.83" height="0.46"/>
<path class="st5" d="M138.7,192.06c2.5-2.22,5.71-4.29,8.58-5.99c8.42-4.98,18.08-7.86,27.85-8.25c7.8-0.36,15.61,0.82,23.11,2.95
	l5.81,1.63c-2.95-3.85-6.35-8.36-9.35-12.13c-0.01-0.01-0.01-0.02-0.02-0.03c-1.31-1.65-3.2-2.74-5.28-3.03l-1.15-0.17
	c1.2,1.78,2.4,3.55,3.61,5.32c0.69,1,1.38,2,2.07,2.99c-14.96-3.59-31.43-1.82-44.32,6.88c-1.7,1.13-3.36,2.38-4.9,3.72
	C142.68,187.74,140.29,189.85,138.7,192.06"/>
<path class="st6" d="M138.78,191.87c1.3-2.37,3.19-4.82,4.92-6.9c5.07-6.09,11.66-10.9,19.01-13.86c5.86-2.39,12.13-3.61,18.44-4.02
	l4.87-0.33c-3.3-2.14-7.12-4.66-10.43-6.72c-0.01,0-0.02-0.01-0.02-0.01c-1.44-0.9-3.18-1.22-4.85-0.88l-0.92,0.19
	c1.4,1.03,2.8,2.06,4.2,3.08c0.8,0.58,1.59,1.15,2.4,1.72c-12.39,1.32-24.48,7.15-31.95,17.28c-0.99,1.33-1.92,2.73-2.73,4.17
	C140.65,187.5,139.39,189.75,138.78,191.87"/>
<path class="st6" d="M138.7,192.19c1.14-0.85,2.37-1.57,3.61-2.26c9.12-4.92,19.47-7.36,29.78-7.84c0.69-0.05,2.5-0.06,3.22-0.08
	c0.99,0,2.22,0.04,3.22,0.06c2.49,0.13,5,0.32,7.47,0.7c0.47,0.07,1.38,0.21,1.85,0.28c0.79,0.15,1.58,0.3,2.36,0.46
	c0.63,0.12,1.46,0.31,2.09,0.47c1.23,0.28,2.9,0.75,4.12,1.13c2.72,0.82,5.37,1.86,7.93,3.08c-1.38-0.13-2.82-0.38-4.2-0.54
	c-0.96-0.11-1.91-0.23-2.86-0.36c-0.78-0.07-2.56-0.27-3.37-0.36c-0.99-0.08-2.11-0.18-3.1-0.28c-1.12-0.08-2.24-0.15-3.35-0.24
	c-0.84-0.03-1.99-0.09-2.84-0.14C169.14,185.64,153.56,187.69,138.7,192.19"/>
<path class="st5" d="M138.7,192.06c-2.5-2.22-5.71-4.29-8.58-5.99c-8.42-4.98-18.08-7.86-27.85-8.25
	c-7.8-0.36-15.61,0.82-23.11,2.95l-5.81,1.63c2.95-3.85,6.35-8.36,9.35-12.13c0.01-0.01,0.01-0.02,0.02-0.03
	c1.31-1.65,3.2-2.74,5.28-3.03l1.15-0.17c-1.2,1.78-2.4,3.55-3.61,5.32c-0.69,1-1.38,2-2.07,2.99c14.96-3.59,31.43-1.82,44.32,6.88
	c1.7,1.13,3.36,2.38,4.9,3.72C134.72,187.74,137.12,189.85,138.7,192.06"/>
<path class="st6" d="M138.62,191.87c-1.3-2.37-3.19-4.82-4.92-6.9c-5.07-6.09-11.66-10.9-19.01-13.86
	c-5.86-2.39-12.13-3.61-18.44-4.02l-4.87-0.33c3.3-2.14,7.12-4.66,10.43-6.72c0.01,0,0.02-0.01,0.02-0.01
	c1.44-0.9,3.18-1.22,4.85-0.88l0.92,0.19c-1.4,1.03-2.8,2.06-4.2,3.08c-0.8,0.58-1.59,1.15-2.4,1.72
	c12.39,1.32,24.48,7.15,31.95,17.28c0.99,1.33,1.92,2.73,2.73,4.17C136.76,187.5,138.01,189.75,138.62,191.87"/>
<path class="st6" d="M138.7,192.19c-1.14-0.85-2.37-1.57-3.61-2.26c-9.12-4.92-19.47-7.36-29.78-7.84c-0.69-0.05-2.5-0.06-3.22-0.08
	c-0.99,0-2.22,0.04-3.22,0.06c-2.49,0.13-5,0.32-7.47,0.7c-0.47,0.07-1.38,0.21-1.85,0.28c-0.79,0.15-1.58,0.3-2.36,0.46
	c-0.63,0.12-1.46,0.31-2.09,0.47c-1.23,0.28-2.9,0.75-4.12,1.13c-2.72,0.82-5.37,1.86-7.93,3.08c1.38-0.13,2.82-0.38,4.2-0.54
	c0.96-0.11,1.91-0.23,2.86-0.36c0.78-0.07,2.56-0.27,3.37-0.36c0.99-0.08,2.11-0.18,3.1-0.28c1.12-0.08,2.24-0.15,3.35-0.24
	c0.84-0.03,1.99-0.09,2.84-0.14C108.27,185.64,123.84,187.69,138.7,192.19"/>
<path class="st5" d="M139.97,105.27l-2.07,23.72l-2.07-23.72c-0.1-1.14,0.74-2.15,1.89-2.24C138.99,102.9,140.09,104,139.97,105.27"
	/>
<path class="st5" d="M126.55,106.37l4.07,23.39l-5.8-23.02C124.56,105.55,126.29,105.18,126.55,106.37"/>
<path class="st5" d="M115.87,109.51l7.76,22.51l-11.54-20.83c-0.55-1-0.19-2.26,0.81-2.82C114.02,107.74,115.47,108.3,115.87,109.51
	"/>
<path class="st5" d="M104.06,115.98l13.23,19.71l-14.66-18.67C101.91,116.05,103.35,114.99,104.06,115.98"/>
<path class="st5" d="M95.59,123.19l16.25,17.41l-19.01-14.34c-0.91-0.69-1.1-1.99-0.41-2.9C93.17,122.33,94.73,122.25,95.59,123.19"
	/>
<path class="st5" d="M150.94,106.74l-5.8,23.02l4.07-23.39C149.45,105.18,151.19,105.55,150.94,106.74"/>
<path class="st5" d="M163.65,111.19l-11.54,20.83l7.76-22.51c0.37-1.08,1.55-1.66,2.64-1.28
	C163.72,108.63,164.28,110.08,163.65,111.19"/>
<path class="st5" d="M173.13,117.02l-14.66,18.67l13.23-19.71C172.4,114.99,173.85,116.04,173.13,117.02"/>
<path class="st5" d="M182.93,126.26l-19.01,14.34l16.25-17.41c0.78-0.84,2.09-0.88,2.93-0.1
	C184.03,123.95,183.95,125.5,182.93,126.26"/>
<path class="st5" d="M189.26,135.4l-19.6,12.09l18.62-13.56C189.28,133.25,190.28,134.74,189.26,135.4"/>
<path class="st5" d="M87.81,133.93l18.62,13.56l-19.6-12.09C85.81,134.74,86.8,133.25,87.81,133.93"/>
<path class="st5" d="M107.1,151.97c2.89-8.98,10.61-15.96,19.47-18.95c7.11-2.46,15.14-2.46,22.24,0
	c7.38,2.48,13.9,7.73,17.62,14.56c0.75,1.42,1.38,2.9,1.87,4.42c0.04,0.11-0.02,0.22-0.13,0.26c-0.09,0.03-0.19-0.01-0.24-0.09
	c-11.73-19.17-38.64-22.7-54.78-7.01c-2.19,2.08-4.11,4.44-5.7,7.02c-0.06,0.1-0.19,0.13-0.28,0.07
	C107.08,152.19,107.06,152.07,107.1,151.97"/>
<path class="st6" d="M108.49,159.45c14.78-1.26,26.19,6.86,29.17,21.5c0.57,2.42,0.87,5.43,1,7.92l0.05,3.19
	c-0.12-8.4-1.7-17.32-7.29-23.88C125.92,161.58,116.88,158.81,108.49,159.45"/>
<path class="st6" d="M168.91,159.45c-8.39-0.64-17.43,2.13-22.92,8.73c-5.59,6.56-7.17,15.48-7.29,23.88l0.05-3.19
	c0.13-2.51,0.43-5.49,1-7.92C142.72,166.31,154.14,158.19,168.91,159.45"/>
</svg>
